<mxfile host="app.diagrams.net" agent="Mozilla/5.0 (Windows NT 10.0; Win64; x64) AppleWebKit/537.36 (KHTML, like Gecko) Chrome/141.0.0.0 Safari/537.36" version="28.2.7">
  <diagram name="Página-1" id="mW83c0Dxjfu8bY-oU2FQ">
    <mxGraphModel grid="1" page="1" gridSize="10" guides="1" tooltips="1" connect="1" arrows="1" fold="1" pageScale="1" pageWidth="1600" pageHeight="900" math="0" shadow="0">
      <root>
        <mxCell id="0" />
        <mxCell id="1" parent="0" />
        <mxCell id="jSdIpUtB9CfOKt0gz5j4-1" value="Usuário" style="swimlane;fontStyle=1;align=center;verticalAlign=top;childLayout=stackLayout;horizontal=1;startSize=26;horizontalStack=0;resizeParent=1;resizeParentMax=0;resizeLast=0;collapsible=1;marginBottom=0;whiteSpace=wrap;html=1;" vertex="1" parent="1">
          <mxGeometry x="720" y="40" width="160" height="150" as="geometry" />
        </mxCell>
        <mxCell id="jSdIpUtB9CfOKt0gz5j4-2" value="- nomeDeUsuario: String&lt;div&gt;- senha: String&lt;/div&gt;&lt;div&gt;- dataDeNascimento: Date&lt;/div&gt;" style="text;strokeColor=none;fillColor=none;align=left;verticalAlign=top;spacingLeft=4;spacingRight=4;overflow=hidden;rotatable=0;points=[[0,0.5],[1,0.5]];portConstraint=eastwest;whiteSpace=wrap;html=1;" vertex="1" parent="jSdIpUtB9CfOKt0gz5j4-1">
          <mxGeometry y="26" width="160" height="54" as="geometry" />
        </mxCell>
        <mxCell id="jSdIpUtB9CfOKt0gz5j4-3" value="" style="line;strokeWidth=1;fillColor=none;align=left;verticalAlign=middle;spacingTop=-1;spacingLeft=3;spacingRight=3;rotatable=0;labelPosition=right;points=[];portConstraint=eastwest;strokeColor=inherit;" vertex="1" parent="jSdIpUtB9CfOKt0gz5j4-1">
          <mxGeometry y="80" width="160" height="8" as="geometry" />
        </mxCell>
        <mxCell id="jSdIpUtB9CfOKt0gz5j4-4" value="+ fazerLogin(String): void&lt;div&gt;+ registrarFa(): void&lt;/div&gt;&lt;div&gt;+ registrarMusico(): void&lt;/div&gt;" style="text;strokeColor=none;fillColor=none;align=left;verticalAlign=top;spacingLeft=4;spacingRight=4;overflow=hidden;rotatable=0;points=[[0,0.5],[1,0.5]];portConstraint=eastwest;whiteSpace=wrap;html=1;" vertex="1" parent="jSdIpUtB9CfOKt0gz5j4-1">
          <mxGeometry y="88" width="160" height="62" as="geometry" />
        </mxCell>
        <mxCell id="jSdIpUtB9CfOKt0gz5j4-9" value="Fã" style="swimlane;fontStyle=1;align=center;verticalAlign=top;childLayout=stackLayout;horizontal=1;startSize=26;horizontalStack=0;resizeParent=1;resizeParentMax=0;resizeLast=0;collapsible=1;marginBottom=0;whiteSpace=wrap;html=1;" vertex="1" parent="1">
          <mxGeometry x="560" y="220" width="160" height="200" as="geometry" />
        </mxCell>
        <mxCell id="jSdIpUtB9CfOKt0gz5j4-10" value="&lt;div&gt;- saldo: Decimal&lt;/div&gt;- mensagem: String&lt;div&gt;- artistaFavorito: Músico&lt;/div&gt;&lt;div&gt;- comunidadesRegistrado: List&amp;lt;Comunidade&amp;gt;&lt;/div&gt;" style="text;strokeColor=none;fillColor=none;align=left;verticalAlign=top;spacingLeft=4;spacingRight=4;overflow=hidden;rotatable=0;points=[[0,0.5],[1,0.5]];portConstraint=eastwest;whiteSpace=wrap;html=1;" vertex="1" parent="jSdIpUtB9CfOKt0gz5j4-9">
          <mxGeometry y="26" width="160" height="84" as="geometry" />
        </mxCell>
        <mxCell id="jSdIpUtB9CfOKt0gz5j4-11" value="" style="line;strokeWidth=1;fillColor=none;align=left;verticalAlign=middle;spacingTop=-1;spacingLeft=3;spacingRight=3;rotatable=0;labelPosition=right;points=[];portConstraint=eastwest;strokeColor=inherit;" vertex="1" parent="jSdIpUtB9CfOKt0gz5j4-9">
          <mxGeometry y="110" width="160" height="8" as="geometry" />
        </mxCell>
        <mxCell id="jSdIpUtB9CfOKt0gz5j4-12" value="+ adicionaSaldo(Decimal): void&lt;div&gt;+ doa(mensagem): void&lt;/div&gt;&lt;div&gt;+ adicionaFavorito(Músico): void&lt;/div&gt;" style="text;strokeColor=none;fillColor=none;align=left;verticalAlign=top;spacingLeft=4;spacingRight=4;overflow=hidden;rotatable=0;points=[[0,0.5],[1,0.5]];portConstraint=eastwest;whiteSpace=wrap;html=1;" vertex="1" parent="jSdIpUtB9CfOKt0gz5j4-9">
          <mxGeometry y="118" width="160" height="82" as="geometry" />
        </mxCell>
        <mxCell id="jSdIpUtB9CfOKt0gz5j4-13" value="Músico" style="swimlane;fontStyle=1;align=center;verticalAlign=top;childLayout=stackLayout;horizontal=1;startSize=26;horizontalStack=0;resizeParent=1;resizeParentMax=0;resizeLast=0;collapsible=1;marginBottom=0;whiteSpace=wrap;html=1;" vertex="1" parent="1">
          <mxGeometry x="880" y="220" width="160" height="160" as="geometry" />
        </mxCell>
        <mxCell id="jSdIpUtB9CfOKt0gz5j4-14" value="- saldo: Decimal&lt;div&gt;- itens: List&amp;lt;Item&amp;gt;&lt;br&gt;&lt;/div&gt;&lt;div&gt;- quantidadeSeguidores: Integer&lt;/div&gt;" style="text;strokeColor=none;fillColor=none;align=left;verticalAlign=top;spacingLeft=4;spacingRight=4;overflow=hidden;rotatable=0;points=[[0,0.5],[1,0.5]];portConstraint=eastwest;whiteSpace=wrap;html=1;" vertex="1" parent="jSdIpUtB9CfOKt0gz5j4-13">
          <mxGeometry y="26" width="160" height="64" as="geometry" />
        </mxCell>
        <mxCell id="jSdIpUtB9CfOKt0gz5j4-15" value="" style="line;strokeWidth=1;fillColor=none;align=left;verticalAlign=middle;spacingTop=-1;spacingLeft=3;spacingRight=3;rotatable=0;labelPosition=right;points=[];portConstraint=eastwest;strokeColor=inherit;" vertex="1" parent="jSdIpUtB9CfOKt0gz5j4-13">
          <mxGeometry y="90" width="160" height="8" as="geometry" />
        </mxCell>
        <mxCell id="jSdIpUtB9CfOKt0gz5j4-16" value="+ consultaSaldo(): Decimal&lt;div&gt;+ resgataSaldo(): Decimal&lt;/div&gt;&lt;div&gt;+ publicaItem(Item): void&lt;/div&gt;" style="text;strokeColor=none;fillColor=none;align=left;verticalAlign=top;spacingLeft=4;spacingRight=4;overflow=hidden;rotatable=0;points=[[0,0.5],[1,0.5]];portConstraint=eastwest;whiteSpace=wrap;html=1;" vertex="1" parent="jSdIpUtB9CfOKt0gz5j4-13">
          <mxGeometry y="98" width="160" height="62" as="geometry" />
        </mxCell>
        <mxCell id="soT2Pt_nIX2C5Ve-uQWK-1" value="Item" style="swimlane;fontStyle=1;align=center;verticalAlign=top;childLayout=stackLayout;horizontal=1;startSize=26;horizontalStack=0;resizeParent=1;resizeParentMax=0;resizeLast=0;collapsible=1;marginBottom=0;whiteSpace=wrap;html=1;" vertex="1" parent="1">
          <mxGeometry x="1140" y="260" width="160" height="110" as="geometry" />
        </mxCell>
        <mxCell id="soT2Pt_nIX2C5Ve-uQWK-2" value="+ tipoItem: String&lt;div&gt;- formatoArquivo: String&lt;br&gt;&lt;div&gt;+ preço: Decimal&lt;/div&gt;&lt;div&gt;- proprietario: Músico&lt;/div&gt;&lt;/div&gt;" style="text;strokeColor=none;fillColor=none;align=left;verticalAlign=top;spacingLeft=4;spacingRight=4;overflow=hidden;rotatable=0;points=[[0,0.5],[1,0.5]];portConstraint=eastwest;whiteSpace=wrap;html=1;" vertex="1" parent="soT2Pt_nIX2C5Ve-uQWK-1">
          <mxGeometry y="26" width="160" height="64" as="geometry" />
        </mxCell>
        <mxCell id="soT2Pt_nIX2C5Ve-uQWK-3" value="" style="line;strokeWidth=1;fillColor=none;align=left;verticalAlign=middle;spacingTop=-1;spacingLeft=3;spacingRight=3;rotatable=0;labelPosition=right;points=[];portConstraint=eastwest;strokeColor=inherit;" vertex="1" parent="soT2Pt_nIX2C5Ve-uQWK-1">
          <mxGeometry y="90" width="160" height="20" as="geometry" />
        </mxCell>
        <mxCell id="soT2Pt_nIX2C5Ve-uQWK-5" value="Comunidade" style="swimlane;fontStyle=1;align=center;verticalAlign=top;childLayout=stackLayout;horizontal=1;startSize=26;horizontalStack=0;resizeParent=1;resizeParentMax=0;resizeLast=0;collapsible=1;marginBottom=0;whiteSpace=wrap;html=1;" vertex="1" parent="1">
          <mxGeometry x="560" y="480" width="160" height="160" as="geometry" />
        </mxCell>
        <mxCell id="soT2Pt_nIX2C5Ve-uQWK-6" value="- quantidadeUsuarios: Integer&lt;div&gt;- criador: Usuario&lt;/div&gt;&lt;div&gt;- publicacoes: List&amp;lt;Publicacao&amp;gt;&lt;/div&gt;" style="text;strokeColor=none;fillColor=none;align=left;verticalAlign=top;spacingLeft=4;spacingRight=4;overflow=hidden;rotatable=0;points=[[0,0.5],[1,0.5]];portConstraint=eastwest;whiteSpace=wrap;html=1;" vertex="1" parent="soT2Pt_nIX2C5Ve-uQWK-5">
          <mxGeometry y="26" width="160" height="84" as="geometry" />
        </mxCell>
        <mxCell id="soT2Pt_nIX2C5Ve-uQWK-7" value="" style="line;strokeWidth=1;fillColor=none;align=left;verticalAlign=middle;spacingTop=-1;spacingLeft=3;spacingRight=3;rotatable=0;labelPosition=right;points=[];portConstraint=eastwest;strokeColor=inherit;" vertex="1" parent="soT2Pt_nIX2C5Ve-uQWK-5">
          <mxGeometry y="110" width="160" height="8" as="geometry" />
        </mxCell>
        <mxCell id="soT2Pt_nIX2C5Ve-uQWK-8" value="+ exibePublicacoes(): List&amp;lt;Publicacao&amp;gt;" style="text;strokeColor=none;fillColor=none;align=left;verticalAlign=top;spacingLeft=4;spacingRight=4;overflow=hidden;rotatable=0;points=[[0,0.5],[1,0.5]];portConstraint=eastwest;whiteSpace=wrap;html=1;" vertex="1" parent="soT2Pt_nIX2C5Ve-uQWK-5">
          <mxGeometry y="118" width="160" height="42" as="geometry" />
        </mxCell>
        <mxCell id="soT2Pt_nIX2C5Ve-uQWK-9" value="Publicacao" style="swimlane;fontStyle=1;align=center;verticalAlign=top;childLayout=stackLayout;horizontal=1;startSize=26;horizontalStack=0;resizeParent=1;resizeParentMax=0;resizeLast=0;collapsible=1;marginBottom=0;whiteSpace=wrap;html=1;" vertex="1" parent="1">
          <mxGeometry x="800" y="480" width="160" height="68" as="geometry" />
        </mxCell>
        <mxCell id="soT2Pt_nIX2C5Ve-uQWK-10" value="+ criadoPor: Usuario&lt;div&gt;+ curtidas: Integer&lt;/div&gt;" style="text;strokeColor=none;fillColor=none;align=left;verticalAlign=top;spacingLeft=4;spacingRight=4;overflow=hidden;rotatable=0;points=[[0,0.5],[1,0.5]];portConstraint=eastwest;whiteSpace=wrap;html=1;" vertex="1" parent="soT2Pt_nIX2C5Ve-uQWK-9">
          <mxGeometry y="26" width="160" height="34" as="geometry" />
        </mxCell>
        <mxCell id="soT2Pt_nIX2C5Ve-uQWK-11" value="" style="line;strokeWidth=1;fillColor=none;align=left;verticalAlign=middle;spacingTop=-1;spacingLeft=3;spacingRight=3;rotatable=0;labelPosition=right;points=[];portConstraint=eastwest;strokeColor=inherit;" vertex="1" parent="soT2Pt_nIX2C5Ve-uQWK-9">
          <mxGeometry y="60" width="160" height="8" as="geometry" />
        </mxCell>
        <mxCell id="soT2Pt_nIX2C5Ve-uQWK-13" value="" style="endArrow=block;endFill=0;endSize=12;html=1;rounded=0;exitX=0.5;exitY=0;exitDx=0;exitDy=0;" edge="1" parent="1" source="jSdIpUtB9CfOKt0gz5j4-9">
          <mxGeometry width="160" relative="1" as="geometry">
            <mxPoint x="550" y="130" as="sourcePoint" />
            <mxPoint x="710" y="120" as="targetPoint" />
            <Array as="points">
              <mxPoint x="640" y="120" />
            </Array>
          </mxGeometry>
        </mxCell>
        <mxCell id="soT2Pt_nIX2C5Ve-uQWK-14" value="" style="endArrow=block;endFill=0;endSize=12;html=1;rounded=0;exitX=0.5;exitY=0;exitDx=0;exitDy=0;" edge="1" parent="1">
          <mxGeometry width="160" relative="1" as="geometry">
            <mxPoint x="960" y="220" as="sourcePoint" />
            <mxPoint x="890" y="120" as="targetPoint" />
            <Array as="points">
              <mxPoint x="960" y="120" />
            </Array>
          </mxGeometry>
        </mxCell>
        <mxCell id="soT2Pt_nIX2C5Ve-uQWK-15" value="" style="endArrow=none;endFill=0;html=1;edgeStyle=orthogonalEdgeStyle;align=left;verticalAlign=top;rounded=0;" edge="1" parent="1">
          <mxGeometry x="-1" relative="1" as="geometry">
            <mxPoint x="720" y="310" as="sourcePoint" />
            <mxPoint x="880" y="310" as="targetPoint" />
          </mxGeometry>
        </mxCell>
        <mxCell id="soT2Pt_nIX2C5Ve-uQWK-16" value="0..1" style="edgeLabel;resizable=0;html=1;align=left;verticalAlign=bottom;" connectable="0" vertex="1" parent="soT2Pt_nIX2C5Ve-uQWK-15">
          <mxGeometry x="-1" relative="1" as="geometry">
            <mxPoint x="10" as="offset" />
          </mxGeometry>
        </mxCell>
        <mxCell id="soT2Pt_nIX2C5Ve-uQWK-18" value="0..*" style="edgeLabel;html=1;align=center;verticalAlign=middle;resizable=0;points=[];" connectable="0" vertex="1" parent="soT2Pt_nIX2C5Ve-uQWK-15">
          <mxGeometry x="-0.925" y="11" relative="1" as="geometry">
            <mxPoint x="134" y="1" as="offset" />
          </mxGeometry>
        </mxCell>
        <mxCell id="soT2Pt_nIX2C5Ve-uQWK-19" value="" style="endArrow=none;endFill=0;html=1;edgeStyle=orthogonalEdgeStyle;align=left;verticalAlign=top;rounded=0;exitX=0.438;exitY=1;exitDx=0;exitDy=0;exitPerimeter=0;entryX=0.44;entryY=-0.01;entryDx=0;entryDy=0;entryPerimeter=0;" edge="1" parent="1" source="jSdIpUtB9CfOKt0gz5j4-12" target="soT2Pt_nIX2C5Ve-uQWK-5">
          <mxGeometry x="-1" relative="1" as="geometry">
            <mxPoint x="550" y="460" as="sourcePoint" />
            <mxPoint x="710" y="460" as="targetPoint" />
          </mxGeometry>
        </mxCell>
        <mxCell id="soT2Pt_nIX2C5Ve-uQWK-20" value="1..*" style="edgeLabel;resizable=0;html=1;align=left;verticalAlign=bottom;" connectable="0" vertex="1" parent="soT2Pt_nIX2C5Ve-uQWK-19">
          <mxGeometry x="-1" relative="1" as="geometry">
            <mxPoint y="20" as="offset" />
          </mxGeometry>
        </mxCell>
        <mxCell id="soT2Pt_nIX2C5Ve-uQWK-21" value="0..*" style="edgeLabel;html=1;align=center;verticalAlign=middle;resizable=0;points=[];" connectable="0" vertex="1" parent="soT2Pt_nIX2C5Ve-uQWK-19">
          <mxGeometry x="-0.925" y="11" relative="1" as="geometry">
            <mxPoint x="-1" y="48" as="offset" />
          </mxGeometry>
        </mxCell>
        <mxCell id="soT2Pt_nIX2C5Ve-uQWK-22" value="1" style="edgeLabel;resizable=0;html=1;align=left;verticalAlign=bottom;" connectable="0" vertex="1" parent="soT2Pt_nIX2C5Ve-uQWK-19">
          <mxGeometry x="-1" relative="1" as="geometry">
            <mxPoint x="90" y="120" as="offset" />
          </mxGeometry>
        </mxCell>
        <mxCell id="soT2Pt_nIX2C5Ve-uQWK-23" value="0..*" style="edgeLabel;html=1;align=center;verticalAlign=middle;resizable=0;points=[];" connectable="0" vertex="1" parent="soT2Pt_nIX2C5Ve-uQWK-19">
          <mxGeometry x="-0.925" y="11" relative="1" as="geometry">
            <mxPoint x="149" y="98" as="offset" />
          </mxGeometry>
        </mxCell>
        <mxCell id="soT2Pt_nIX2C5Ve-uQWK-35" value="1" style="edgeLabel;resizable=0;html=1;align=left;verticalAlign=bottom;" connectable="0" vertex="1" parent="soT2Pt_nIX2C5Ve-uQWK-19">
          <mxGeometry x="-1" relative="1" as="geometry">
            <mxPoint x="90" y="-30" as="offset" />
          </mxGeometry>
        </mxCell>
        <mxCell id="soT2Pt_nIX2C5Ve-uQWK-36" value="1" style="edgeLabel;resizable=0;html=1;align=left;verticalAlign=bottom;" connectable="0" vertex="1" parent="soT2Pt_nIX2C5Ve-uQWK-19">
          <mxGeometry x="-1" relative="1" as="geometry">
            <mxPoint x="230" y="60" as="offset" />
          </mxGeometry>
        </mxCell>
        <mxCell id="soT2Pt_nIX2C5Ve-uQWK-29" value="" style="endArrow=none;endFill=0;html=1;edgeStyle=orthogonalEdgeStyle;align=left;verticalAlign=top;rounded=0;exitX=0.998;exitY=0.39;exitDx=0;exitDy=0;exitPerimeter=0;entryX=0.375;entryY=0;entryDx=0;entryDy=0;entryPerimeter=0;" edge="1" parent="1" target="soT2Pt_nIX2C5Ve-uQWK-9">
          <mxGeometry x="-1" relative="1" as="geometry">
            <mxPoint x="720" y="391" as="sourcePoint" />
            <mxPoint x="800" y="390" as="targetPoint" />
          </mxGeometry>
        </mxCell>
        <mxCell id="soT2Pt_nIX2C5Ve-uQWK-30" value="" style="endArrow=none;endFill=0;html=1;edgeStyle=orthogonalEdgeStyle;align=left;verticalAlign=top;rounded=0;entryX=0;entryY=0.706;entryDx=0;entryDy=0;entryPerimeter=0;" edge="1" parent="1" target="soT2Pt_nIX2C5Ve-uQWK-10">
          <mxGeometry x="-1" relative="1" as="geometry">
            <mxPoint x="720" y="538" as="sourcePoint" />
            <mxPoint x="770" y="530" as="targetPoint" />
            <Array as="points">
              <mxPoint x="760" y="538" />
              <mxPoint x="760" y="530" />
            </Array>
          </mxGeometry>
        </mxCell>
        <mxCell id="soT2Pt_nIX2C5Ve-uQWK-37" value="name" style="endArrow=none;endFill=0;html=1;edgeStyle=orthogonalEdgeStyle;align=left;verticalAlign=top;rounded=0;" edge="1" parent="1">
          <mxGeometry x="-1" relative="1" as="geometry">
            <mxPoint x="1040" y="310" as="sourcePoint" />
            <mxPoint x="1140" y="310" as="targetPoint" />
          </mxGeometry>
        </mxCell>
        <mxCell id="soT2Pt_nIX2C5Ve-uQWK-38" value="1" style="edgeLabel;resizable=0;html=1;align=left;verticalAlign=bottom;" connectable="0" vertex="1" parent="soT2Pt_nIX2C5Ve-uQWK-37">
          <mxGeometry x="-1" relative="1" as="geometry" />
        </mxCell>
        <mxCell id="soT2Pt_nIX2C5Ve-uQWK-39" value="0..*" style="edgeLabel;resizable=0;html=1;align=left;verticalAlign=bottom;" connectable="0" vertex="1" parent="soT2Pt_nIX2C5Ve-uQWK-37">
          <mxGeometry x="-1" relative="1" as="geometry">
            <mxPoint x="70" as="offset" />
          </mxGeometry>
        </mxCell>
      </root>
    </mxGraphModel>
  </diagram>
</mxfile>
